{"title":"Beyoncé - Formation (2016 RnB)","uid":13479114,"size":121698977,"categoryP":"video","categoryS":"music_videos","magnet":"?xt=urn:btih:be249914629febea70e393a3ee1f0e74ef05701c&amp;dn=Beyonc%26eacute%3B+-+Formation+%282016+RnB%29&amp;tr=udp%3A%2F%2Ftracker.leechers-paradise.org%3A6969&amp;tr=udp%3A%2F%2Fzer0day.ch%3A1337&amp;tr=udp%3A%2F%2Fopen.demonii.com%3A1337&amp;tr=udp%3A%2F%2Ftracker.coppersurfer.tk%3A6969&amp;tr=udp%3A%2F%2Fexodus.desync.com%3A6969","seeders":5,"leechers":0,"uploader":"MeRaDil","files":1,"time":1455041858,"description":"BEYONCÉ - FORMATION\r\n\r\n \nhttp://ultraimg.com/images/formation01.png\r\n \nhttp://ultraimg.com/images/formation.png\r\n\r\n\r\nGeneral\r\nBeyoncé - Formation\r\nFormat                                   : MPEG-4\r\nFormat profile                           : Base Media\r\nCodec ID                                 : isom\r\nFile size                                : 116 MiB\r\nDuration                                 : 4mn 53s\r\nOverall bit rate                         : 3 322 Kbps\r\nMusicVid name                            : Formation\r\nPerformer                                : Beyoncé\r\nGenre                                    : RnB\r\nContentType                              : Music Video\r\nRecorded date                            : 2016\r\nWriting application                      : Lavf56.32.100 / MeRaDil\r\nCover                                    : Yes\r\nArtisturl                                : http://www.beyonce.com/\r\nReleasetime                              : USA . february 6 . 2016\r\n\r\nVideo\r\nID                                       : 1\r\nFormat                                   : AVC\r\nFormat/Info                              : Advanced Video Codec\r\nFormat profile                           :   \r\nFormat settings, CABAC                   : Yes\r\nFormat settings, ReFrames                : 2 frames\r\nCodec ID                                 : avc1\r\nCodec ID/Info                            : Advanced Video Coding\r\nDuration                                 : 4mn 52s\r\nBit rate                                 : 3 051 Kbps\r\nWidth                                    : 1 920 pixels\r\nHeight                                   : 1 080 pixels\r\nDisplay aspect ratio                     : 16:9\r\nFrame rate mode                          : Variable\r\nFrame rate                               : 23.976 fps\r\nMinimum frame rate                       : 23.974 fps\r\nMaximum frame rate                       : 23.981 fps\r\nColor space                              : YUV\r\nChroma subsampling                       : 4:2:0\r\nBit depth                                : 8 bits\r\nScan type                                : Progressive\r\nBits/(Pixel*Frame)                       : 0.061\r\nStream size                              : 107 MiB (92%)\r\n\r\nAudio\r\nID                                       : 2\r\nFormat                                   : AAC\r\nFormat/Info                              : Advanced Audio Codec\r\nFormat profile                           : LC\r\nCodec ID                                 : 40\r\nDuration                                 : 4mn 53s\r\nBit rate mode                            : Constant\r\nBit rate                                 : 256 Kbps\r\nChannel(s)                               : 2 channels\r\nChannel positions                        : Front: L R\r\nSampling rate                            : 44.1 KHz\r\nCompression mode                         : Lossy\r\nStream size                              : 8.94 MiB (8%)","torrent":{"xt":"urn:btih:be249914629febea70e393a3ee1f0e74ef05701c","amp;dn":"Beyonc%26eacute%3B+-+Formation+%282016+RnB%29","amp;tr":["udp%3A%2F%2Ftracker.leechers-paradise.org%3A6969","udp%3A%2F%2Fzer0day.ch%3A1337","udp%3A%2F%2Fopen.demonii.com%3A1337","udp%3A%2F%2Ftracker.coppersurfer.tk%3A6969","udp%3A%2F%2Fexodus.desync.com%3A6969"],"infoHash":"be249914629febea70e393a3ee1f0e74ef05701c","infoHashBuffer":{"type":"Buffer","data":[190,36,153,20,98,159,235,234,112,227,147,163,238,31,14,116,239,5,112,28]},"announce":[],"urlList":[]}}